<svg width="32" height="25" viewBox="0 0 32 25" fill="none" xmlns="http://www.w3.org/2000/svg">
<path fill-rule="evenodd" clip-rule="evenodd" d="M0 1.78571C0 0.799491 0.795938 0 1.77778 0H30.2222C31.2041 0 32 0.799491 32 1.78571C32 2.77194 31.2041 3.57143 30.2222 3.57143H1.77778C0.795938 3.57143 0 2.77194 0 1.78571Z" fill="#314E59"/>
<path fill-rule="evenodd" clip-rule="evenodd" d="M0 12.5C0 11.5138 0.795938 10.7143 1.77778 10.7143H30.2222C31.2041 10.7143 32 11.5138 32 12.5C32 13.4862 31.2041 14.2857 30.2222 14.2857H1.77778C0.795938 14.2857 0 13.4862 0 12.5Z" fill="#314E59"/>
<path fill-rule="evenodd" clip-rule="evenodd" d="M0 23.2143C0 22.2281 0.795938 21.4286 1.77778 21.4286H30.2222C31.2041 21.4286 32 22.2281 32 23.2143C32 24.2005 31.2041 25 30.2222 25H1.77778C0.795938 25 0 24.2005 0 23.2143Z" fill="#314E59"/>
</svg>
