<svg width="25" height="25" viewBox="0 0 25 25" fill="none" xmlns="http://www.w3.org/2000/svg">
<mask id="mask0_266_27" style="mask-type:alpha" maskUnits="userSpaceOnUse" x="0" y="0" width="25" height="25">
<path fill-rule="evenodd" clip-rule="evenodd" d="M7.74495 1.07924L10.3727 3.64716L10.3924 3.66678C11.1106 4.40089 11.4057 5.4187 11.4056 6.33581C11.4056 7.25292 11.1106 8.27068 10.3924 9.00479L9.11386 10.3118C9.41485 11.3875 10.1322 12.5739 11.1311 13.6016C12.1325 14.632 13.2953 15.3779 14.3685 15.6893L15.6463 14.3832C16.3648 13.6487 17.3618 13.3463 18.261 13.3463C19.1602 13.3463 20.1572 13.6487 20.8757 14.3831L23.4967 17.0622C24.2148 17.7963 24.5099 18.8141 24.5099 19.7312C24.5099 20.6483 24.2148 21.6661 23.4966 22.4002C21.5423 24.3979 18.9928 25 17.824 25C16.015 25 14.3812 24.8865 12.5002 23.9889C10.6662 23.1138 8.68877 21.5384 6.03694 18.8276C3.34918 16.0801 1.8214 13.8334 0.976249 11.8591C0.1195 9.85782 0 8.21754 0 6.78241C0 5.77847 0.12369 4.81751 0.535647 3.83504C0.943478 2.86241 1.59866 1.95232 2.54225 0.987757C3.28105 0.232548 4.29953 -0.0322568 5.19637 0.00308297C6.0898 0.0382882 7.05038 0.376 7.74495 1.07924ZM5.10175 2.50123C4.69614 2.48524 4.41218 2.61567 4.27724 2.75361C3.47362 3.57509 3.03667 4.22789 2.78918 4.81813C2.54581 5.39852 2.45099 6.00041 2.45099 6.78241C2.45099 8.02646 2.55013 9.28825 3.22244 10.8587C3.90635 12.4563 5.21804 14.4511 7.77194 17.0618C10.3618 19.7092 12.0969 21.0364 13.5387 21.7244C14.9335 22.39 16.1386 22.5 17.824 22.5C18.4453 22.5 20.3354 22.0923 21.7616 20.6343C21.9171 20.4754 22.0589 20.1535 22.0589 19.7311C22.0589 19.3087 21.9172 18.987 21.7617 18.8281L19.1408 16.149C18.9857 15.9905 18.6723 15.8463 18.261 15.8463C17.8498 15.8463 17.5364 15.9904 17.3813 16.149L15.6341 17.935C15.3615 18.2137 14.9761 18.3451 14.594 18.2897C12.6794 18.0119 10.8102 16.8225 9.39045 15.3617C7.9711 13.9013 6.83155 11.9955 6.56447 10.0843C6.51012 9.69542 6.63817 9.30308 6.9102 9.025L8.65743 7.23895C8.81288 7.08003 8.95466 6.75822 8.95466 6.33578C8.95467 5.9197 8.81715 5.60133 8.66451 5.44005L6.04059 2.8759L6.02093 2.85626C5.84258 2.67396 5.5061 2.51716 5.10175 2.50123Z" fill="white"/>
</mask>
<g mask="url(#mask0_266_27)">
<rect x="-3.67651" y="-3.67627" width="31.8628" height="30.6373" fill="#314E59"/>
</g>
</svg>
