<svg width="32" height="33" viewBox="0 0 32 33" fill="none" xmlns="http://www.w3.org/2000/svg">
<mask id="mask0_144_311" style="mask-type:alpha" maskUnits="userSpaceOnUse" x="0" y="0" width="32" height="33">
<path fill-rule="evenodd" clip-rule="evenodd" d="M10.1118 1.40906L13.5426 4.76172L13.5682 4.78733C14.506 5.74579 14.8912 7.07464 14.8912 8.27201C14.8912 9.46939 14.5059 10.7982 13.5683 11.7566L11.899 13.463C12.292 14.8674 13.2286 16.4164 14.5327 17.7582C15.8401 19.1034 17.3582 20.0773 18.7595 20.4839L20.4278 18.7786C21.3658 17.8197 22.6676 17.4249 23.8415 17.4249C25.0155 17.4249 26.3172 17.8197 27.2553 18.7786L30.6772 22.2763C31.6148 23.2348 32 24.5636 32 25.761C32 26.9584 31.6147 28.2871 30.6771 29.2456C28.1255 31.8538 24.7969 32.6399 23.271 32.6399C20.9092 32.6399 18.776 32.4917 16.3202 31.3198C13.9258 30.1773 11.344 28.1204 7.88181 24.5813C4.37267 20.9941 2.37801 18.0608 1.27459 15.4833C0.156019 12.8703 0 10.7288 0 8.85508C0 7.54435 0.161489 6.28972 0.699339 5.00701C1.2318 3.73714 2.0872 2.54894 3.31915 1.28961C4.28372 0.303614 5.61345 -0.0421143 6.78436 0.00402511C7.95082 0.049989 9.20495 0.490904 10.1118 1.40906ZM6.66083 3.26559C6.13127 3.24472 5.76053 3.41501 5.58435 3.5951C4.53514 4.66762 3.96466 5.51992 3.64154 6.29053C3.3238 7.04829 3.2 7.83411 3.2 8.85508C3.2 10.4793 3.32944 12.1267 4.2072 14.1771C5.10012 16.2629 6.81265 18.8673 10.147 22.2758C13.5283 25.7323 15.7937 27.4651 17.6761 28.3633C19.4971 29.2323 21.0705 29.3759 23.271 29.3759C24.0821 29.3759 26.5498 28.8436 28.4119 26.9401C28.6149 26.7325 28.8 26.3124 28.8 25.7609C28.8 25.2094 28.615 24.7893 28.412 24.5818L24.9901 21.0841C24.7876 20.8771 24.3784 20.6889 23.8415 20.6889C23.3047 20.6889 22.8955 20.877 22.693 21.0841L20.4118 23.4159C20.0559 23.7797 19.5528 23.9513 19.0539 23.8789C16.5541 23.5163 14.1138 21.9634 12.2601 20.0561C10.407 18.1494 8.91925 15.6612 8.57055 13.166C8.49959 12.6583 8.66677 12.1461 9.02193 11.783L11.3031 9.45114C11.5061 9.24366 11.6912 8.82351 11.6912 8.27197C11.6912 7.72874 11.5116 7.31307 11.3123 7.10251L7.88657 3.75476L7.86091 3.72912C7.62805 3.49112 7.18874 3.28639 6.66083 3.26559Z" fill="white"/>
</mask>
<g mask="url(#mask0_144_311)">
<rect x="-4.79999" y="-4.7998" width="41.6" height="40" fill="#F2F4EA"/>
</g>
</svg>
